<?xml version="1.0" standalone="no"?>
<!DOCTYPE svg PUBLIC "-//W3C//DTD SVG 20010904//EN"
 "http://www.w3.org/TR/2001/REC-SVG-20010904/DTD/svg10.dtd">
<svg version="1.0" xmlns="http://www.w3.org/2000/svg"
 width="500.000000pt" height="500.000000pt" viewBox="0 0 500.000000 500.000000"
 preserveAspectRatio="xMidYMid meet">

<g transform="translate(0.000000,500.000000) scale(0.100000,-0.100000)"
fill="#000000" stroke="none">
<path d="M2429 4652 c-31 -16 -76 -43 -100 -59 -52 -35 -314 -188 -1096 -638
l-573 -330 0 -219 c0 -204 1 -218 18 -211 9 4 143 51 297 105 154 54 471 166
705 250 803 288 756 272 835 267 54 -4 115 -21 270 -77 110 -40 206 -75 214
-80 9 -5 -14 -26 -75 -71 -206 -148 -392 -329 -589 -569 -418 -513 -752 -820
-1125 -1034 -180 -104 -404 -192 -584 -231 l-29 -6 7 -106 c3 -58 6 -139 6
-178 l0 -73 438 -252 c543 -314 1209 -702 1321 -769 120 -72 159 -68 315 34
28 19 299 176 601 350 303 174 675 389 828 478 l277 160 0 209 c0 114 -4 208
-9 208 -5 0 -210 -72 -457 -159 -1497 -531 -1348 -481 -1434 -481 -53 0 -105
8 -161 24 -81 24 -346 130 -362 145 -4 4 11 20 35 36 224 147 442 350 638 595
570 709 1100 1115 1638 1251 l92 24 -2 180 -3 179 -115 67 c-63 37 -407 236
-765 443 -357 206 -692 401 -743 433 -52 32 -117 73 -146 90 -74 47 -100 49
-167 15z"/>
</g>
</svg>
